<mxfile host="Electron" agent="Mozilla/5.0 (Windows NT 10.0; Win64; x64) AppleWebKit/537.36 (KHTML, like Gecko) draw.io/28.1.2 Chrome/138.0.7204.243 Electron/37.4.0 Safari/537.36" version="28.1.2">
  <diagram name="PÃ¡gina-1" id="jQoiph2c1nl-3ZJ2nl2n">
    <mxGraphModel dx="727" dy="448" grid="1" gridSize="10" guides="1" tooltips="1" connect="1" arrows="1" fold="1" page="1" pageScale="1" pageWidth="827" pageHeight="1169" math="0" shadow="0">
      <root>
        <mxCell id="0" />
        <mxCell id="1" parent="0" />
        <mxCell id="_NtyxQ0_7e0Htwn68GD2-7" value="" style="rounded=0;whiteSpace=wrap;html=1;fillColor=#eeeeee;strokeColor=#36393D;strokeWidth=2;" parent="1" vertex="1">
          <mxGeometry x="50" y="250" width="100" height="80" as="geometry" />
        </mxCell>
        <mxCell id="_NtyxQ0_7e0Htwn68GD2-2" value="&lt;font style=&quot;font-size: 14px;&quot; face=&quot;Courier New&quot;&gt;&lt;b&gt;head&lt;/b&gt;&lt;/font&gt;" style="rounded=0;whiteSpace=wrap;html=1;fillColor=#fad9d5;strokeColor=#ae4132;" parent="1" vertex="1">
          <mxGeometry x="74" y="270" width="50" height="40" as="geometry" />
        </mxCell>
        <mxCell id="_NtyxQ0_7e0Htwn68GD2-6" value="" style="endArrow=classic;html=1;rounded=0;exitX=1;exitY=0.5;exitDx=0;exitDy=0;strokeColor=#AE4132;entryX=0;entryY=0.5;entryDx=0;entryDy=0;" parent="1" source="_NtyxQ0_7e0Htwn68GD2-2" target="3QNwfG33OlBaRYiH3SOb-1" edge="1">
          <mxGeometry width="50" height="50" relative="1" as="geometry">
            <mxPoint x="270" y="410" as="sourcePoint" />
            <mxPoint x="220" y="290" as="targetPoint" />
          </mxGeometry>
        </mxCell>
        <mxCell id="3QNwfG33OlBaRYiH3SOb-1" value="&lt;font face=&quot;Courier New&quot;&gt;&lt;span style=&quot;font-size: 14px;&quot;&gt;&lt;b&gt;10&lt;/b&gt;&lt;/span&gt;&lt;/font&gt;" style="rounded=0;whiteSpace=wrap;html=1;fillColor=#d5e8d4;strokeColor=#000000;" parent="1" vertex="1">
          <mxGeometry x="180" y="270" width="40" height="40" as="geometry" />
        </mxCell>
        <mxCell id="3QNwfG33OlBaRYiH3SOb-2" value="" style="rounded=0;whiteSpace=wrap;html=1;fillColor=#fff2cc;strokeColor=#000000;" parent="1" vertex="1">
          <mxGeometry x="220" y="270" width="30" height="40" as="geometry" />
        </mxCell>
        <mxCell id="3QNwfG33OlBaRYiH3SOb-5" value="" style="endArrow=classic;html=1;rounded=0;entryX=0;entryY=0.25;entryDx=0;entryDy=0;strokeColor=#666666;" parent="1" target="3QNwfG33OlBaRYiH3SOb-11" edge="1">
          <mxGeometry width="50" height="50" relative="1" as="geometry">
            <mxPoint x="235" y="290" as="sourcePoint" />
            <mxPoint x="330" y="340" as="targetPoint" />
            <Array as="points">
              <mxPoint x="270" y="290" />
              <mxPoint x="270" y="240" />
              <mxPoint x="380" y="240" />
              <mxPoint x="380" y="280" />
            </Array>
          </mxGeometry>
        </mxCell>
        <mxCell id="3QNwfG33OlBaRYiH3SOb-8" value="&lt;font face=&quot;Courier New&quot;&gt;&lt;span style=&quot;font-size: 14px;&quot;&gt;&lt;b&gt;20&lt;/b&gt;&lt;/span&gt;&lt;/font&gt;" style="rounded=0;whiteSpace=wrap;html=1;fillColor=#f8cecc;strokeColor=#000000;" parent="1" vertex="1">
          <mxGeometry x="290" y="270" width="40" height="40" as="geometry" />
        </mxCell>
        <mxCell id="3QNwfG33OlBaRYiH3SOb-9" value="" style="rounded=0;whiteSpace=wrap;html=1;fillColor=#fff2cc;strokeColor=#000000;" parent="1" vertex="1">
          <mxGeometry x="330" y="270" width="30" height="40" as="geometry" />
        </mxCell>
        <mxCell id="3QNwfG33OlBaRYiH3SOb-11" value="&lt;font face=&quot;Courier New&quot;&gt;&lt;span style=&quot;font-size: 14px;&quot;&gt;&lt;b&gt;30&lt;/b&gt;&lt;/span&gt;&lt;/font&gt;" style="rounded=0;whiteSpace=wrap;html=1;fillColor=#d5e8d4;strokeColor=#000000;" parent="1" vertex="1">
          <mxGeometry x="500" y="270" width="40" height="40" as="geometry" />
        </mxCell>
        <mxCell id="3QNwfG33OlBaRYiH3SOb-12" value="" style="rounded=0;whiteSpace=wrap;html=1;fillColor=#fff2cc;strokeColor=#000000;" parent="1" vertex="1">
          <mxGeometry x="540" y="270" width="30" height="40" as="geometry" />
        </mxCell>
        <mxCell id="rn9nRXQhYf9IObCMmKqG-2" value="" style="endArrow=classic;html=1;rounded=0;strokeColor=#9933FF;entryX=0.5;entryY=1;entryDx=0;entryDy=0;" parent="1" source="rn9nRXQhYf9IObCMmKqG-1" target="3QNwfG33OlBaRYiH3SOb-8" edge="1">
          <mxGeometry width="50" height="50" relative="1" as="geometry">
            <mxPoint x="420" y="470" as="sourcePoint" />
            <mxPoint x="420" y="370" as="targetPoint" />
          </mxGeometry>
        </mxCell>
        <mxCell id="rn9nRXQhYf9IObCMmKqG-1" value="&lt;font style=&quot;font-size: 14px;&quot; face=&quot;Courier New&quot;&gt;&lt;b&gt;current&lt;/b&gt;&lt;/font&gt;" style="rounded=0;whiteSpace=wrap;html=1;fillColor=#e1d5e7;strokeColor=#9673a6;" parent="1" vertex="1">
          <mxGeometry x="270" y="370" width="80" height="40" as="geometry" />
        </mxCell>
        <mxCell id="fni0oGq10wlxoXj5UCXv-1" value="&lt;font face=&quot;Courier New&quot;&gt;&lt;span style=&quot;font-size: 14px;&quot;&gt;&lt;b&gt;40&lt;/b&gt;&lt;/span&gt;&lt;/font&gt;" style="rounded=0;whiteSpace=wrap;html=1;fillColor=#dae8fc;strokeColor=#000000;" parent="1" vertex="1">
          <mxGeometry x="610" y="270" width="40" height="40" as="geometry" />
        </mxCell>
        <mxCell id="fni0oGq10wlxoXj5UCXv-2" value="" style="rounded=0;whiteSpace=wrap;html=1;fillColor=#fff2cc;strokeColor=#000000;" parent="1" vertex="1">
          <mxGeometry x="650" y="270" width="30" height="40" as="geometry" />
        </mxCell>
        <mxCell id="fni0oGq10wlxoXj5UCXv-3" value="" style="endArrow=none;html=1;rounded=0;exitX=1;exitY=1;exitDx=0;exitDy=0;entryX=0;entryY=0;entryDx=0;entryDy=0;exitPerimeter=0;" parent="1" source="fni0oGq10wlxoXj5UCXv-2" target="fni0oGq10wlxoXj5UCXv-2" edge="1">
          <mxGeometry width="50" height="50" relative="1" as="geometry">
            <mxPoint x="700" y="300" as="sourcePoint" />
            <mxPoint x="750" y="250" as="targetPoint" />
          </mxGeometry>
        </mxCell>
        <mxCell id="fni0oGq10wlxoXj5UCXv-6" value="&lt;font style=&quot;font-size: 14px;&quot; face=&quot;Courier New&quot;&gt;&lt;b&gt;prev&lt;/b&gt;&lt;/font&gt;" style="rounded=0;whiteSpace=wrap;html=1;fillColor=#f5f5f5;strokeColor=#666666;fontColor=#333333;" parent="1" vertex="1">
          <mxGeometry x="160" y="370" width="80" height="40" as="geometry" />
        </mxCell>
        <mxCell id="fni0oGq10wlxoXj5UCXv-7" value="" style="endArrow=classic;html=1;rounded=0;strokeColor=#666666;exitX=0.5;exitY=0;exitDx=0;exitDy=0;" parent="1" source="fni0oGq10wlxoXj5UCXv-6" edge="1">
          <mxGeometry width="50" height="50" relative="1" as="geometry">
            <mxPoint x="600" y="320" as="sourcePoint" />
            <mxPoint x="200" y="310" as="targetPoint" />
          </mxGeometry>
        </mxCell>
        <mxCell id="l_FOMN2Unb6uhz1o4c3f-1" value="" style="endArrow=classic;html=1;rounded=0;" parent="1" edge="1">
          <mxGeometry width="50" height="50" relative="1" as="geometry">
            <mxPoint x="554" y="289.49999999999994" as="sourcePoint" />
            <mxPoint x="609" y="289.49999999999994" as="targetPoint" />
          </mxGeometry>
        </mxCell>
        <mxCell id="l_FOMN2Unb6uhz1o4c3f-2" value="&lt;font face=&quot;Courier New&quot;&gt;&lt;span style=&quot;font-size: 14px;&quot;&gt;&lt;b&gt;20&lt;/b&gt;&lt;/span&gt;&lt;/font&gt;" style="rounded=0;whiteSpace=wrap;html=1;fillColor=#f8cecc;strokeColor=#b85450;" parent="1" vertex="1">
          <mxGeometry x="290" y="429" width="40" height="40" as="geometry" />
        </mxCell>
        <mxCell id="l_FOMN2Unb6uhz1o4c3f-4" value="&lt;font style=&quot;font-size: 14px;&quot; face=&quot;Courier New&quot;&gt;&lt;b&gt;removedNode&lt;/b&gt;&lt;/font&gt;" style="rounded=0;whiteSpace=wrap;html=1;" parent="1" vertex="1">
          <mxGeometry x="260" y="160" width="100" height="40" as="geometry" />
        </mxCell>
        <mxCell id="l_FOMN2Unb6uhz1o4c3f-5" value="&lt;font face=&quot;Courier New&quot; style=&quot;font-size: 14px;&quot;&gt;&lt;b&gt;data&lt;/b&gt;&lt;/font&gt;" style="text;html=1;align=center;verticalAlign=middle;whiteSpace=wrap;rounded=0;" parent="1" vertex="1">
          <mxGeometry x="280" y="469" width="60" height="30" as="geometry" />
        </mxCell>
        <mxCell id="l_FOMN2Unb6uhz1o4c3f-6" value="" style="endArrow=classic;html=1;rounded=0;strokeColor=#666666;exitX=0.5;exitY=1;exitDx=0;exitDy=0;entryX=0.5;entryY=0;entryDx=0;entryDy=0;" parent="1" source="l_FOMN2Unb6uhz1o4c3f-4" target="3QNwfG33OlBaRYiH3SOb-8" edge="1">
          <mxGeometry width="50" height="50" relative="1" as="geometry">
            <mxPoint x="309.5" y="270" as="sourcePoint" />
            <mxPoint x="410" y="230" as="targetPoint" />
          </mxGeometry>
        </mxCell>
        <mxCell id="Z_0YQOHvG7zgZAajhKTP-2" value="&lt;font style=&quot;color: rgb(102, 102, 102);&quot; face=&quot;Courier New&quot;&gt;&lt;b&gt;prev.next&lt;/b&gt;&lt;/font&gt;" style="text;html=1;align=left;verticalAlign=middle;whiteSpace=wrap;rounded=0;" parent="1" vertex="1">
          <mxGeometry x="399" y="257" width="80" height="26" as="geometry" />
        </mxCell>
        <mxCell id="Z_0YQOHvG7zgZAajhKTP-3" value="&lt;font style=&quot;color: rgb(153, 51, 255);&quot; face=&quot;Courier New&quot;&gt;&lt;b&gt;current.next&lt;/b&gt;&lt;/font&gt;" style="text;html=1;align=left;verticalAlign=middle;whiteSpace=wrap;rounded=0;" parent="1" vertex="1">
          <mxGeometry x="383" y="282" width="101" height="30" as="geometry" />
        </mxCell>
        <mxCell id="Z_0YQOHvG7zgZAajhKTP-5" value="" style="endArrow=classic;html=1;rounded=0;strokeColor=#9933FF;entryX=0;entryY=0.5;entryDx=0;entryDy=0;" parent="1" target="3QNwfG33OlBaRYiH3SOb-11" edge="1">
          <mxGeometry width="50" height="50" relative="1" as="geometry">
            <mxPoint x="346" y="290" as="sourcePoint" />
            <mxPoint x="405" y="351" as="targetPoint" />
            <Array as="points" />
          </mxGeometry>
        </mxCell>
      </root>
    </mxGraphModel>
  </diagram>
</mxfile>
